<svg version="1.1" xmlns="http://www.w3.org/2000/svg" xmlns:xlink="http://www.w3.org/1999/xlink" width="131.91246" height="54.19676" viewBox="0,0,131.91246,54.19676"><g transform="translate(-254.04377,-168.19302)"><g stroke="none" stroke-miterlimit="10"><path d="M254.04377,222.38978v-54.19676h131.91246v54.19676z" fill="none" stroke-width="0"/><text transform="translate(300.24134,183.17145) scale(0.26429,0.26429)" font-size="40" xml:space="preserve" fill="#ff0000" stroke-width="1" font-family="&quot;Retro Gaming&quot;, Sans Serif" font-weight="400" text-anchor="start"><tspan x="0" dy="0">LIVES</tspan></text><g fill="#ffffff" stroke-width="0"><path d="M354.75679,204.56076v-11.1187h2.7915v11.1187z"/><path d="M352.91156,195.28735v-6.48198h6.48198v6.48196z"/><path d="M349.55229,197.08524h13.81558v2.7915h-13.81558z"/><path d="M352.91156,203.63815h6.43466v1.98717h-6.43466z"/><path d="M357.57195,203.63815h1.98717v4.58943h-1.98717z"/><path d="M355.04066,208.22756h-2.12912v-4.58942h2.12912z"/><path d="M358.45576,206.42972h2.90129v6.10345h-2.90129z"/><path d="M354.01492,212.53314h-2.90128v-6.10346h2.90128z"/></g><g fill="#ffffff" stroke-width="0"><path d="M318.29672,204.56076v-11.1187h2.79152v11.1187z"/><path d="M316.45149,195.28735v-6.48198h6.48198v6.48196z"/><path d="M313.09223,197.08524h13.81558v2.7915h-13.81558z"/><path d="M316.4515,203.63815h6.43466v1.98717h-6.43466z"/><path d="M321.11189,203.63815h1.98717v4.58943h-1.98717z"/><path d="M318.58062,208.22756h-2.12912v-4.58942h2.12912z"/><path d="M321.9957,206.42972h2.90128v6.10345h-2.90128z"/><path d="M317.55487,212.53314h-2.90129v-6.10346h2.90129z"/></g><g fill="#ffffff" stroke-width="0"><path d="M281.83663,204.56076v-11.1187h2.79152v11.1187z"/><path d="M279.9914,195.28735v-6.48198h6.48198v6.48196z"/><path d="M276.63214,197.08524h13.81558v2.7915h-13.81558z"/><path d="M279.99141,203.63815h6.43466v1.98717h-6.43466z"/><path d="M284.6518,203.63815h1.98717v4.58943h-1.98717z"/><path d="M282.12053,208.22756h-2.12912v-4.58942h2.12912z"/><path d="M285.53561,206.42972h2.90129v6.10345h-2.90129z"/><path d="M281.09478,212.53314h-2.90129v-6.10346h2.90129z"/></g></g></g></svg>