<svg version="1.1" xmlns="http://www.w3.org/2000/svg" xmlns:xlink="http://www.w3.org/1999/xlink" width="225.17676" height="203.50759" viewBox="0,0,225.17676,203.50759"><defs><linearGradient x1="578.27197" y1="236.27237" x2="608.76234" y2="222.43968" gradientUnits="userSpaceOnUse" id="color-1"><stop offset="0" stop-color="#adadad"/><stop offset="1" stop-color="#adadad" stop-opacity="0"/></linearGradient><linearGradient x1="595.86059" y1="215.25467" x2="595.86059" y2="181.77325" gradientUnits="userSpaceOnUse" id="color-2"><stop offset="0" stop-color="#8dae00"/><stop offset="1" stop-color="#8dae00" stop-opacity="0"/></linearGradient><linearGradient x1="534.23391" y1="193.26875" x2="503.14033" y2="180.85132" gradientUnits="userSpaceOnUse" id="color-3"><stop offset="0" stop-color="#adadad"/><stop offset="1" stop-color="#adadad" stop-opacity="0"/></linearGradient><linearGradient x1="551.43561" y1="242.59718" x2="556.9055" y2="275.62871" gradientUnits="userSpaceOnUse" id="color-4"><stop offset="0" stop-color="#adadad"/><stop offset="1" stop-color="#adadad" stop-opacity="0"/></linearGradient><linearGradient x1="434.01377" y1="224.24208" x2="447.36751" y2="193.53894" gradientUnits="userSpaceOnUse" id="color-5"><stop offset="0" stop-color="#adadad"/><stop offset="1" stop-color="#adadad" stop-opacity="0"/></linearGradient><linearGradient x1="536.09142" y1="282.69781" x2="507.17056" y2="299.56757" gradientUnits="userSpaceOnUse" id="color-6"><stop offset="0" stop-color="#adadad"/><stop offset="1" stop-color="#adadad" stop-opacity="0"/></linearGradient><linearGradient x1="443.72379" y1="274.50451" x2="443.72379" y2="241.0231" gradientUnits="userSpaceOnUse" id="color-7"><stop offset="0" stop-color="#adadad"/><stop offset="1" stop-color="#adadad" stop-opacity="0"/></linearGradient><linearGradient x1="593.15984" y1="309.66908" x2="610.54926" y2="338.28052" gradientUnits="userSpaceOnUse" id="color-8"><stop offset="0" stop-color="#adadad"/><stop offset="1" stop-color="#adadad" stop-opacity="0"/></linearGradient><linearGradient x1="593.15982" y1="295.6345" x2="607.5837" y2="265.41934" gradientUnits="userSpaceOnUse" id="color-9"><stop offset="0" stop-color="#adadad"/><stop offset="1" stop-color="#adadad" stop-opacity="0"/></linearGradient><linearGradient x1="481.55218" y1="329.32861" x2="481.55218" y2="295.84718" gradientUnits="userSpaceOnUse" id="color-10"><stop offset="0" stop-color="#adadad"/><stop offset="1" stop-color="#adadad" stop-opacity="0"/></linearGradient><linearGradient x1="481.12478" y1="268.93482" x2="488.61863" y2="236.30287" gradientUnits="userSpaceOnUse" id="color-11"><stop offset="0" stop-color="#adadad"/><stop offset="1" stop-color="#adadad" stop-opacity="0"/></linearGradient></defs><g transform="translate(-414.82324,-156.49243)"><g stroke-miterlimit="10"><path d="M414.82324,360.00001v-203.50758h225.17676v203.50759z" fill-opacity="0.01176" fill="#000000" stroke="#ffffff" stroke-width="0"/><path d="M585.20219,247.50945v45.57238h-9.12752v-45.57238z" fill="#222b35" stroke="none" stroke-width="0"/><path d="M590.82925,293.08182h-30.0955v-9.12754h30.0955z" fill="#222b35" stroke="none" stroke-width="0"/><path d="M439.16004,307.06952v-35.22647h9.12754v35.22647z" fill="#222b35" stroke="none" stroke-width="0"/><path d="M472.37062,307.06952h-33.21058v-9.12754h33.21058z" fill="#222b35" stroke="none" stroke-width="0"/><path d="M515.47548,329.28537h-24.67576v-9.12754h24.67576z" fill="#222b35" stroke="none" stroke-width="0"/><path d="M499.02401,285.53428v7.91394h-8.22431v-7.91394z" fill="none" stroke="#ffffff" stroke-width="1.5"/><path d="M490.73375,279.83376v65.41729h-18.36314v-65.41728z" fill-opacity="0.25098" fill="#000000" stroke="#ffffff" stroke-width="1.5"/><path d="M590.86833,329.28537h-19.56272v-9.12754h19.56273z" fill="#222b35" stroke="none" stroke-width="0"/><path d="M515.47548,345.25115v-37.88473h55.83014v37.88473z" fill-opacity="0.25098" fill="#000000" stroke="#ffffff" stroke-width="1.5"/><path d="M536.13711,307.36633v-9.16942h14.50693v9.16942z" fill="none" stroke="#ffffff" stroke-width="1.5"/><path d="M590.82925,345.25115v-88.5722h26.87371v88.57222z" fill-opacity="0.25098" fill="#000000" stroke="#ffffff" stroke-width="1.5"/><path d="M611.35835,203.79246h-31.08346v-24.1277h31.08346z" fill-opacity="0.25098" fill="#000000" stroke="#ffffff" stroke-width="1.5"/><path d="M597.01262,256.67885v-9.16941h14.50693v9.16941z" fill="none" stroke="#ffffff" stroke-width="1.5"/><path d="M622.06963,203.79245v43.71706h-52.26752v-43.71706z" fill-opacity="0.25098" fill="#000000" stroke="#ffffff" stroke-width="1.5"/><path d="M561.44595,231.94873v-7.9h8.3562v7.9z" fill="none" stroke="#ffffff" stroke-width="1.5"/><path d="M463.84788,271.88373v-80.28609h97.5245v80.28609z" fill-opacity="0.25098" fill="#000000" stroke="#ffffff" stroke-width="1.5"/><path d="M484.50936,191.59772v-18.61888h58.12124v18.61888z" fill-opacity="0.25098" fill="#000000" stroke="#ffffff" stroke-width="1.5"/><path d="M499.02401,279.83376h61.70977v18.36313h-61.70977z" fill-opacity="0.25098" fill="#000000" stroke="#ffffff" stroke-width="1.5"/><path d="M455.69208,203.50687v-7.99249h8.1558v7.99249z" fill="none" stroke="#ffffff" stroke-width="1.5"/><path d="M430.72193,227.30131v-45.87933h24.97015v45.87934z" fill-opacity="0.25098" fill="#000000" stroke="#ffffff" stroke-width="1.5"/><path d="M508.31231,279.83376v-7.91394h8.2243v7.91394z" fill="none" stroke="#ffffff" stroke-width="1.5"/><path d="M576.64604,232.68846l29.05668,-16.99287l6.11925,13.48822l-31.92407,10.67247z" fill="url(#color-1)" stroke="#ffffff" stroke-width="0"/><text transform="translate(534.67439,329.94348) scale(0.20224,0.20224)" font-size="40" xml:space="preserve" fill="#ffffff" stroke="none" stroke-width="1" font-family="Pixel" font-weight="normal" text-anchor="start"><tspan x="0" dy="0">YOU</tspan></text><path d="M539.71509,341.19806v-7.70932h7.70933v7.70932z" fill="#ffffff" stroke="#000000" stroke-width="0"/><path d="M591.92507,215.25467l-3.4702,-33.48143h14.81139l-3.47022,33.48143z" fill="url(#color-2)" stroke="#ffffff" stroke-width="0"/><path d="M532.77433,196.92358l-32.38063,-9.19474l5.49319,-13.75508l29.80659,15.64019z" fill="url(#color-3)" stroke="#ffffff" stroke-width="0"/><path d="M555.31823,241.95422l8.89347,32.46466l-14.6124,2.41975l-2.04629,-33.59852z" fill="url(#color-4)" stroke="#ffffff" stroke-width="0"/><path d="M431.75553,271.84308v-36.09202h23.93655v36.09202z" fill-opacity="0.25098" fill="#000000" stroke="#ffffff" stroke-width="1.5"/><path d="M430.40485,222.67246l10.17149,-32.08721l13.58236,5.90738l-16.53601,29.31909z" fill="url(#color-5)" stroke="#ffffff" stroke-width="0"/><path d="M538.07433,286.09719l-27.17238,19.86731l-7.4628,-12.7939l30.66934,-13.87226z" fill="url(#color-6)" stroke="#ffffff" stroke-width="0"/><path d="M439.78831,274.50451l-3.4702,-33.48142h14.8114l-3.47022,33.48143z" fill="url(#color-7)" stroke="#ffffff" stroke-width="0"/><path d="M596.52289,307.6251l20.35489,26.80909l-12.65702,7.69268l-14.42396,-30.41377z" fill="url(#color-8)" stroke="#ffffff" stroke-width="0"/><path d="M589.60825,293.93909l11.29222,-31.71017l13.36649,6.38079l-17.55556,28.72022z" fill="url(#color-9)" stroke="#ffffff" stroke-width="0"/><path d="M477.61669,329.32861l-3.47021,-33.48142h14.8114l-3.47022,33.48143z" fill="url(#color-10)" stroke="#ffffff" stroke-width="0"/><path d="M477.28914,268.05398l4.1117,-33.40872l14.43563,3.31511l-10.87605,31.85531z" fill="url(#color-11)" stroke="#ffffff" stroke-width="0"/><path d="M426.90322,217.13157l14.2211,0.00001v14.22109l-14.22109,0.00001z" fill="#56575e" stroke="#ffffff" stroke-width="1"/><path d="M527.12337,186.15819l14.2211,0.00001v14.22109l-14.22109,0.00001z" fill="#56575e" stroke="#ffffff" stroke-width="1"/><path d="M544.32504,235.48663l14.2211,0.00001v14.22109l-14.22109,0.00001z" fill="#56575e" stroke="#ffffff" stroke-width="1"/><path d="M571.16144,229.16181l14.2211,0.00002v14.22108l-14.22109,0.00002z" fill="#56575e" stroke="#ffffff" stroke-width="1"/><path d="M588.75002,208.14411l14.2211,0.00001v14.22109l-14.22109,0.00001z" fill="#56575e" stroke="#ffffff" stroke-width="1"/><path d="M586.04927,287.49001l14.2211,0.00001v14.22109l-14.22109,0.00001z" fill="#56575e" stroke="#ffffff" stroke-width="1"/><path d="M586.04927,303.59254l14.2211,0.00001v14.22109l-14.22109,0.00001z" fill="#56575e" stroke="#ffffff" stroke-width="1"/><path d="M528.98087,275.58723l14.2211,0.00001v14.22109l-14.22109,0.00001z" fill="#56575e" stroke="#ffffff" stroke-width="1"/><path d="M474.01421,261.82425l14.2211,0.00001v14.22109l-14.22108,0.00001z" fill="#56575e" stroke="#ffffff" stroke-width="1"/><path d="M474.44163,322.21808l14.2211,0.00001v14.22109l-14.22109,0.00001z" fill="#56575e" stroke="#ffffff" stroke-width="1"/><path d="M436.61325,267.39396l14.2211,0.00001v14.22109l-14.22109,0.00001z" fill="#56575e" stroke="#ffffff" stroke-width="1"/></g></g></svg>